#!OML:ASF F:\VICON\USERDATA\INSTALL\rory3\rory3.ASF
:FULLY-SPECIFIED
:DEGREES
310
root -0.0170329 17.7754 27.302 -2.89412 0.777311 -2.28069
lowerback 9.45442 -1.16617 0.678585
upperback 0.351661 -1.34936 2.52996
thorax -4.8934 -0.654148 2.43792
lowerneck -15.2781 -2.29237 -2.11501
upperneck 21.2728 -2.87409 0.869052
head 9.26042 -1.42014 0.29439
rclavicle 1.06847e-014 1.90833e-014
rhumerus -42.6526 -36.338 -64.1287
rradius 17.1215
rwrist 17.3367
rhand -18.6219 23.1389
rfingers 7.12502
rthumb 7.67012 -6.70203
lclavicle 1.06847e-014 1.90833e-014
lhumerus -22.55 -2.8534 82.4117
lradius 30.2541
lwrist 6.65867
lhand -25.2862 25.0952
lfingers 7.12502
lthumb 1.23512 55.0714
rfemur -23.9491 4.44352 26.3027
rtibia 32.9129
rfoot -4.14563 -4.44477
rtoes 10.5762
lfemur 6.96303 -3.23996 -19.6012
ltibia 48.6802
lfoot 13.8002 -14.9187
ltoes -8.24208
311
root -0.0458181 17.7923 27.4983 -2.92059 0.775973 -2.85122
lowerback 9.35555 -1.13094 1.13361
upperback 0.395902 -1.25096 2.65422
thorax -4.80248 -0.614929 2.29448
lowerneck -15.2337 -2.30549 -2.16417
upperneck 21.1058 -2.90758 0.993665
head 9.19752 -1.42612 0.342325
rclavicle 5.34234e-015 2.14687e-014
rhumerus -42.0188 -35.3348 -65.1775
rradius 17.2704
rwrist 16.4229
rhand -18.5143 22.9318
rfingers 7.12502
rthumb 7.77397 -6.90531
lclavicle 5.34234e-015 2.14687e-014
lhumerus -22.89 -2.5728 82.5101
lradius 30.2849
lwrist 6.42275
lhand -24.6254 24.4259
lfingers 7.12502
lthumb 1.87336 54.3974
rfemur -23.0699 4.7766 27.1037
rtibia 32.6781
rfoot -4.39165 -4.61963
rtoes 12.1373
lfemur 5.35217 -3.09453 -18.6597
ltibia 51.3017
lfoot 16.5597 -15.7851
ltoes -4.2243
312
root -0.0757332 17.8142 27.6873 -2.97669 0.784097 -3.35731
lowerback 9.36156 -1.05449 1.49664
upperback 0.434394 -1.1055 2.77166
thorax -4.77488 -0.549832 2.1928
lowerneck -15.2749 -2.35857 -2.34224
upperneck 21.0533 -2.98712 1.21926
head 9.19512 -1.45219 0.439003
rclavicle -2.16551e-014 -2.78299e-015
rhumerus -41.4685 -34.5352 -66.0773
rradius 17.4286
rwrist 15.9714
rhand -18.6751 22.1444
rfingers 7.12502
rthumb 7.61872 -7.69837
lclavicle -2.16551e-014 -2.78299e-015
lhumerus -23.0925 -2.60033 82.691
lradius 30.1357
lwrist 6.42174
lhand -25.7514 23.6424
lfingers 7.12502
lthumb 0.785843 53.6207
rfemur -22.1738 5.02806 27.8486
rtibia 32.4815
rfoot -4.78912 -4.74214
rtoes 12.9734
lfemur 3.74769 -2.89736 -17.7708
ltibia 53.8453
lfoot 19.2834 -16.916
ltoes -1.24959
313
root -0.100412 17.8406 27.8773 -3.09946 0.747193 -3.76696
lowerback 9.52852 -0.976283 1.8516
upperback 0.439927 -0.953921 2.83823
thorax -4.87165 -0.481788 2.04626
lowerneck -15.405 -2.40844 -2.38727
upperneck 21.1085 -3.05478 1.27198
head 9.24134 -1.48053 0.454442
rclavicle 2.3059e-014 -2.10712e-014
rhumerus -40.8063 -33.5067 -67.1111
rradius 17.464
rwrist 15.4828
rhand -18.8168 21.8745
rfingers 7.12502
rthumb 7.48198 -7.97321
lclavicle 2.3059e-014 -2.10712e-014
lhumerus -23.403 -2.39462 82.8032
lradius 30.0301
lwrist 5.86498
lhand -27.1041 23.8765
lfingers 7.12502
lthumb -0.520669 53.8556
rfemur -21.2456 5.22937 28.4746
rtibia 32.3528
rfoot -5.59191 -4.97954
rtoes 11.9689
lfemur 2.22693 -2.67183 -17.0355
ltibia 56.2127
lfoot 21.4784 -17.7339
ltoes 0.607524
314
root -0.123472 17.8652 28.0694 -3.19914 0.593468 -3.94874
lowerback 9.63347 -0.894004 1.98093
upperback 0.446504 -0.825883 2.84944
thorax -4.92809 -0.421284 1.96998
lowerneck -15.5469 -2.39597 -2.30201
upperneck 21.1834 -3.0243 1.13569
head 9.28935 -1.47358 0.395478
rclavicle -3.40419e-015 -2.62396e-014
rhumerus -40.2446 -32.9837 -67.6773
rradius 17.237
rwrist 15.669
rhand -18.7054 22.5814
rfingers 7.12502
rthumb 7.58953 -7.26245
lclavicle -3.40419e-015 -2.62396e-014
lhumerus -23.6883 -2.17902 82.8208
lradius 29.8268
lwrist 5.3846
lhand -27.5922 24.4928
lfingers 7.12502
lthumb -0.992055 54.4702
rfemur -20.3934 5.51009 28.8602
rtibia 32.2651
rfoot -6.09596 -5.34567
rtoes 11.9562
lfemur 0.714815 -2.28602 -16.5779
ltibia 58.3952
lfoot 22.8556 -17.3229
ltoes 4.75769
315
root -0.148215 17.8848 28.2555 -3.2945 0.577269 -3.94982
lowerback 9.60816 -0.795059 1.91531
upperback 0.50633 -0.708875 2.76246
thorax -4.85357 -0.362901 1.89824
lowerneck -15.4 -2.41873 -2.1561
upperneck 20.9887 -3.08524 1.10117
head 9.19241 -1.49512 0.354301
rclavicle 7.04443e-015 1.39149e-014
rhumerus -39.5405 -32.3801 -68.5112
rradius 17.205
rwrist 15.6383
rhand -18.6823 22.5696
rfingers 7.12502
rthumb 7.61185 -7.27339
lclavicle 7.04443e-015 1.39149e-014
lhumerus -23.8106 -2.3013 82.8668
lradius 29.5459
lwrist 5.39985
lhand -27.6454 24.7083
lfingers 7.12502
lthumb -1.04339 54.6855
rfemur -19.6066 5.6018 29.0727
rtibia 32.2573
rfoot -6.46033 -5.713
rtoes 11.5912
lfemur -0.707317 -2.01078 -16.3343
ltibia 60.3641
lfoot 23.0414 -16.2796
ltoes 10.5239
316
root -0.170803 17.8934 28.4303 -3.35597 0.640774 -4.19614
lowerback 9.67138 -0.745195 2.0827
upperback 0.511456 -0.621355 2.7712
thorax -4.88705 -0.323233 1.80231
lowerneck -15.1676 -2.42982 -2.06586
upperneck 20.7991 -3.11898 1.07452
head 9.08237 -1.50821 0.329668
rclavicle 9.06955e-016 -3.10104e-014
rhumerus -38.8812 -31.6412 -69.342
rradius 17.3684
rwrist 15.5089
rhand -18.4966 21.7436
rfingers 7.12502
rthumb 7.79104 -8.09281
lclavicle 9.06955e-016 -3.10104e-014
lhumerus -24.0061 -2.16863 82.9525
lradius 29.2906
lwrist 5.31678
lhand -27.8171 25.0452
lfingers 7.12502
lthumb -1.20925 55.0215
rfemur -18.8856 5.53741 29.5206
rtibia 32.2484
rfoot -7.05221 -5.81374
rtoes 11.4482
lfemur -2.14021 -1.78469 -15.8229
ltibia 62.2287
lfoot 21.7134 -15.7751
ltoes 12.498
317
root -0.188973 17.9018 28.6086 -3.51579 0.623468 -4.36404
lowerback 9.90483 -0.672557 2.22045
upperback 0.450396 -0.498251 2.75623
thorax -5.08528 -0.26614 1.69713
lowerneck -14.8296 -2.43366 -2.04787
upperneck 20.6925 -3.1467 1.12916
head 8.98444 -1.51595 0.34646
rclavicle -1.92573e-014 1.19271e-015
rhumerus -38.6346 -31.2675 -69.6682
rradius 17.4123
rwrist 15.8943
rhand -18.277 22.0206
rfingers 7.12502
rthumb 8.00301 -7.80786
lclavicle -1.92573e-014 1.19271e-015
lhumerus -24.5466 -1.84129 83.0069
lradius 29.2745
lwrist 4.83899
lhand -27.6116 26.1671
lfingers 7.12502
lthumb -1.01075 56.1445
rfemur -18.0273 5.50327 29.8731
rtibia 32.2094
rfoot -7.61001 -5.85809
rtoes 11.2341
lfemur -3.32576 -1.49031 -15.4512
ltibia 63.9244
lfoot 19.513 -15.1543
ltoes 9.97153
318
root -0.20582 17.9137 28.7916 -3.6679 0.586641 -4.7255
lowerback 10.0447 -0.665114 2.52086
upperback 0.445386 -0.444222 2.82391
thorax -5.17183 -0.246002 1.5937
lowerneck -14.6955 -2.43687 -2.25619
upperneck 20.6682 -3.14927 1.33276
head 8.95869 -1.51234 0.451631
rclavicle -1.32937e-015 2.94201e-014
rhumerus -38.1706 -30.727 -70.1637
rradius 17.4741
rwrist 16.188
rhand -18.2807 23.728
rfingers 7.12502
rthumb 7.99947 -6.10059
lclavicle -1.32937e-015 2.94201e-014
lhumerus -25.0597 -1.45692 83.0238
lradius 29.2037
lwrist 4.48559
lhand -27.2289 25.5954
lfingers 7.12502
lthumb -0.641209 55.5742
rfemur -17.0963 5.51581 30.4277
rtibia 32.0574
rfoot -8.18516 -5.96728
rtoes 11.064
lfemur -4.56185 -1.12284 -14.8589
ltibia 65.5263
lfoot 16.9529 -14.6742
ltoes 6.79779
319
root -0.219292 17.931 28.9642 -3.63192 0.547092 -4.91175
lowerback 9.96902 -0.635873 2.65033
upperback 0.465601 -0.392565 2.86772
thorax -5.10934 -0.222767 1.55781
lowerneck -14.8391 -2.42501 -2.32326
upperneck 20.7947 -3.11732 1.3439
head 9.02948 -1.50021 0.468325
rclavicle 1.63376e-014 -1.15295e-014
rhumerus -37.4166 -30.2069 -70.7553
rradius 17.4622
rwrist 16.4511
rhand -18.3035 26.041
rfingers 7.12502
rthumb 7.97738 -3.78844
lclavicle 1.63376e-014 -1.15295e-014
lhumerus -25.1699 -1.00398 83.0735
lradius 28.7283
lwrist 4.4196
lhand -26.9364 23.2564
lfingers 7.12502
lthumb -0.358703 53.2358
rfemur -16.3966 5.53996 30.7605
rtibia 31.884
rfoot -8.65215 -6.04707
rtoes 10.6077
lfemur -6.10531 -0.792689 -14.521
ltibia 66.9634
lfoot 14.7097 -14.1
ltoes 6.15934
320
root -0.232669 17.9488 29.1377 -3.70443 0.450244 -5.02567
lowerback 9.84847 -0.521761 2.76404
upperback 0.601488 -0.240717 2.84018
thorax -4.90091 -0.149275 1.43988
lowerneck -14.9888 -2.46051 -2.15409
upperneck 20.8892 -3.17927 1.22715
head 9.08582 -1.52719 0.390756
rclavicle 1.71328e-014 1.19271e-015
rhumerus -36.5784 -29.9573 -71.2976
rradius 17.3918
rwrist 16.9404
rhand -18.0725 26.9716
rfingers 7.12502
rthumb 8.20037 -2.84925
lclavicle 1.71328e-014 1.19271e-015
lhumerus -25.024 -0.799581 83.1567
lradius 28.1164
lwrist 4.4979
lhand -26.8713 22.5127
lfingers 7.12502
lthumb -0.29578 52.4922
rfemur -15.6142 5.57943 31.0044
rtibia 31.7283
rfoot -9.19807 -6.06062
rtoes 11.5264
lfemur -7.49215 -0.423335 -14.3008
ltibia 68.1991
lfoot 12.5778 -13.9094
ltoes 3.86675
321
root -0.245534 17.9628 29.3196 -3.82672 0.367672 -5.06737
lowerback 9.7636 -0.433472 2.79477
upperback 0.676696 -0.129869 2.78548
thorax -4.77517 -0.0947935 1.34805
lowerneck -14.6966 -2.45247 -2.11027
upperneck 20.7345 -3.19533 1.28365
head 8.97908 -1.52718 0.404931
rclavicle 4.39811e-015 5.96354e-015
rhumerus -35.8751 -29.5482 -71.8166
rradius 17.3883
rwrist 17.3467
rhand -18.0949 26.7343
rfingers 7.12502
rthumb 8.17875 -3.08743
lclavicle 4.39811e-015 5.96354e-015
lhumerus -25.3364 -0.732294 83.2129
lradius 27.9168
lwrist 4.48788
lhand -25.3711 25.522
lfingers 7.12502
lthumb 1.15319 55.4986
rfemur -14.7268 5.47871 31.1633
rtibia 31.5947
rfoot -9.83794 -5.96684
rtoes 11.9842
lfemur -8.60048 -0.120343 -14.1855
ltibia 69.1665
lfoot 10.1511 -13.6309
ltoes -0.78119
322
root -0.258424 17.9701 29.5023 -3.86597 0.314913 -4.93982
lowerback 9.68557 -0.334344 2.65314
upperback 0.656565 -0.0207596 2.69932
thorax -4.75259 -0.0387382 1.32209
lowerneck -14.5012 -2.4787 -2.24576
upperneck 20.7674 -3.24442 1.46189
head 8.96094 -1.54269 0.484302
rclavicle 1.7698e-014 -4.33351e-014
rhumerus -35.3475 -29.5108 -72.0658
rradius 17.4843
rwrist 17.9407
rhand -18.0681 26.1711
rfingers 7.12502
rthumb 8.20461 -3.64964
lclavicle 1.7698e-014 -4.33351e-014
lhumerus -25.8996 -0.524751 83.257
lradius 27.968
lwrist 4.20757
lhand -19.4293 34.507
lfingers 7.12502
lthumb 6.89077 64.3749
rfemur -13.9243 5.41241 31.1611
rtibia 31.4635
rfoot -10.4271 -6.01768
rtoes 12.1835
lfemur -9.69373 0.111753 -14.2565
ltibia 69.9252
lfoot 7.54406 -12.9972
ltoes -6.01897
